# xmcd CD database file
#
# Track frame offsets:
#	150
#	20722
#	36432
#	59580
#	87005
#	112325
#	137360
#	155945
#	174849
#	194595
#	217705
#	235890
#
# Disc length: 3411 seconds
#
# Revision: 0
# Processed by: cddbd v1.5.2PL0 Copyright (c) Steve Scherf et al.
# Submitted via: CDex 1.51
#
DISCID=a90d510c
DTITLE=Martin Gasselsberger Trio - As It Is
DYEAR=2010
DGENRE=Jazz
TTITLE0=Tea Time
TTITLE1=Simply Yours
TTITLE2=Reverie
TTITLE3=Indian Summer
TTITLE4=Rose Coloured Glasses
TTITLE5=As It Is
TTITLE6=The Baby's Dance
TTITLE7=Mounten
TTITLE8=Mild Attempt
TTITLE9=Quiet Stream
TTITLE10=Yearning
TTITLE11=Kick Off
EXTD=YEAR: 2010
EXTT0=
EXTT1=
EXTT2=
EXTT3=
EXTT4=
EXTT5=
EXTT6=
EXTT7=
EXTT8=
EXTT9=
EXTT10=
EXTT11=
PLAYORDER=
